<svg width="16" height="16" viewBox="0 0 16 16" fill="none" xmlns="http://www.w3.org/2000/svg">
<path fill-rule="evenodd" clip-rule="evenodd" d="M8.00065 1.33337C11.6825 1.33337 14.6673 4.31814 14.6673 8.00004C14.6673 11.6819 11.6825 14.6667 8.00065 14.6667C4.31875 14.6667 1.33398 11.6819 1.33398 8.00004C1.33398 4.31814 4.31875 1.33337 8.00065 1.33337ZM10.4453 5.41801C10.2159 5.26445 9.90558 5.32597 9.75198 5.55538L6.96612 9.71491L5.52148 8.26304C5.32672 8.06731 5.01021 8.06637 4.81445 8.26111C4.61887 8.45591 4.61845 8.77244 4.81315 8.96811L6.68812 10.8529C6.79378 10.959 6.94145 11.0118 7.09052 10.9974C7.23958 10.983 7.37432 10.9025 7.45765 10.778L10.5827 6.11137C10.7363 5.88193 10.6747 5.57163 10.4453 5.41801Z" fill="#00A63E"/>
</svg>
