<svg width="16" height="16" viewBox="0 0 16 16" fill="none" xmlns="http://www.w3.org/2000/svg">
<path fill-rule="evenodd" clip-rule="evenodd" d="M8.00016 1.33203C4.31826 1.33203 1.3335 4.3168 1.3335 7.9987C1.3335 11.6806 4.31826 14.6654 8.00016 14.6654C11.682 14.6654 14.6668 11.6806 14.6668 7.9987C14.6668 4.3168 11.682 1.33203 8.00016 1.33203ZM7.50016 5.66536C7.22403 5.66536 7.00016 5.88922 7.00016 6.16536C7.00016 6.4415 6.7763 6.66536 6.50016 6.66536C6.22402 6.66536 6.00016 6.4415 6.00016 6.16536C6.00016 5.33694 6.67176 4.66536 7.50016 4.66536H8.30596C9.24163 4.66536 10.0002 5.42389 10.0002 6.35958C10.0002 6.92603 9.71703 7.45503 9.24576 7.76923L8.87123 8.0189C8.63943 8.17343 8.50016 8.43363 8.50016 8.7123V8.83203C8.50016 9.10816 8.2763 9.33203 8.00016 9.33203C7.72403 9.33203 7.50016 9.10816 7.50016 8.83203V8.7123C7.50016 8.0993 7.8065 7.5269 8.31656 7.18683L8.69103 6.93716C8.88416 6.80843 9.00016 6.59168 9.00016 6.35958C9.00016 5.97617 8.68936 5.66536 8.30596 5.66536H7.50016ZM8.00016 9.9987C7.63196 9.9987 7.3335 10.2972 7.3335 10.6654C7.3335 11.0336 7.63196 11.332 8.00016 11.332C8.36836 11.332 8.66683 11.0336 8.66683 10.6654C8.66683 10.2972 8.36836 9.9987 8.00016 9.9987Z" fill="white"/>
</svg>
