<svg width="16" height="16" viewBox="0 0 16 16" fill="none" xmlns="http://www.w3.org/2000/svg">
<path d="M8 11.332C8.27613 11.332 8.5 11.5559 8.5 11.832V14.1654C8.5 14.4415 8.27613 14.6654 8 14.6654C7.72387 14.6654 7.5 14.4415 7.5 14.1654V11.832C7.5 11.5559 7.72387 11.332 8 11.332Z" fill="white"/>
<path d="M3.28662 3.28308C3.4819 3.08799 3.79845 3.08788 3.99365 3.28308L8.3543 7.64374C8.54916 7.83894 8.54916 8.1556 8.3543 8.3508L3.99365 12.7108C3.79844 12.906 3.4819 12.9059 3.28662 12.7108C3.0915 12.5155 3.0914 12.199 3.28662 12.0038L6.7925 8.49727H1.8335C1.55736 8.49727 1.3335 8.2734 1.3335 7.99727C1.3335 7.72114 1.55736 7.49727 1.8335 7.49727H6.79376L3.28662 3.99011C3.09137 3.79484 3.09136 3.47833 3.28662 3.28308Z" fill="white"/>
<path d="M10.3579 10.3534C10.5531 10.1583 10.8697 10.1582 11.0649 10.3534L12.7147 12.0032C12.9097 12.1984 12.9097 12.515 12.7147 12.7102C12.5195 12.9054 12.2029 12.9053 12.0076 12.7102L10.3579 11.0604C10.1626 10.8652 10.1626 10.5486 10.3579 10.3534Z" fill="white"/>
<path d="M14.1668 7.5C14.443 7.5 14.6668 7.72387 14.6668 8C14.6668 8.27613 14.443 8.5 14.1668 8.5H11.8335C11.5574 8.5 11.3335 8.27613 11.3335 8C11.3335 7.72387 11.5574 7.5 11.8335 7.5H14.1668Z" fill="white"/>
<path d="M12.0075 3.28304C12.2028 3.08797 12.5194 3.08792 12.7146 3.28304C12.9097 3.47826 12.9097 3.79485 12.7146 3.99007L11.0649 5.63981C10.8697 5.83502 10.5531 5.83491 10.3578 5.63981C10.1627 5.44454 10.1626 5.12801 10.3578 4.93278L12.0075 3.28304Z" fill="white"/>
<path d="M8 1.33203C8.27613 1.33203 8.5 1.55589 8.5 1.83203V4.16536C8.5 4.4415 8.27613 4.66536 8 4.66536C7.72387 4.66536 7.5 4.4415 7.5 4.16536V1.83203C7.5 1.55589 7.72387 1.33203 8 1.33203Z" fill="white"/>
</svg>
