<svg xmlns="http://www.w3.org/2000/svg" viewBox="0 0 16 16" fill="none"><g transform="matrix(1 0 0 1 0 0)"><g transform="matrix(1 0 0 1 4 4.6666669845581055)"><path d="M0.5179396867752075 4.224228382110596 C0.21835972368717194 3.938178300857544 -0.256387323141098 3.9491465091705322 -0.5424375534057617 4.2487263679504395 C-0.8284876942634583 4.548306465148926 -0.8175196647644043 5.0230536460876465 -0.5179396867752075 5.309103488922119 L0 4.766665935516357 L0.5179396867752075 4.224228382110596 Z M2.6880664825439453 7.3333330154418945 L2.1701269149780273 7.875770568847656 C2.326761245727539 8.025330543518066 2.5403997898101807 8.099882125854492 2.756077527999878 8.080243110656738 C2.971755266189575 8.060604095458984 3.1684153079986572 7.948692798614502 3.2954607009887695 7.773301601409912 L2.6880664825439453 7.3333330154418945 Z M8.607394218444824 0.43996870517730713 C8.850381851196289 0.1045142263174057 8.775423049926758 -0.3644060492515564 8.439969062805176 -0.6073940396308899 C8.104514122009277 -0.8503820896148682 7.635594367980957 -0.7754231691360474 7.392606258392334 -0.43996870517730713 L8 0 L8.607394218444824 0.43996870517730713 Z M0 4.766665935516357 L-0.5179396867752075 5.309103488922119 L2.1701269149780273 7.875770568847656 L2.6880664825439453 7.3333330154418945 L3.2060062885284424 6.790895462036133 L0.5179396867752075 4.224228382110596 L0 4.766665935516357 Z M2.6880664825439453 7.3333330154418945 L3.2954607009887695 7.773301601409912 L8.607394218444824 0.43996870517730713 L8 0 L7.392606258392334 -0.43996870517730713 L2.0806725025177 6.893364429473877 L2.6880664825439453 7.3333330154418945 Z" fill="currentColor" fill-rule="nonzero"/></g></g></svg>
