<svg width="14" height="14" viewBox="0 0 14 14" fill="none" xmlns="http://www.w3.org/2000/svg">
<path d="M7.58333 12.2502C7.90551 12.2502 8.16667 11.989 8.16667 11.6668C8.16667 11.3447 7.90551 11.0835 7.58333 11.0835C7.26116 11.0835 7 11.3447 7 11.6668C7 11.989 7.26116 12.2502 7.58333 12.2502Z" fill="#7C3AED"/>
<path d="M12.25 6.41683C12.25 6.09466 11.9888 5.8335 11.6666 5.8335C11.3445 5.8335 11.0833 6.09466 11.0833 6.41683C11.0833 6.73901 11.3445 7.00017 11.6666 7.00017C11.9888 7.00017 12.25 6.73901 12.25 6.41683Z" fill="#7C3AED"/>
<path d="M11.6255 8.32286C11.9046 8.48397 12.0001 8.84074 11.839 9.11975C11.6779 9.39876 11.3212 9.49431 11.0422 9.33325C10.7632 9.17213 10.6676 8.81542 10.8287 8.53642C10.9898 8.25741 11.3465 8.1618 11.6255 8.32286Z" fill="#7C3AED"/>
<path d="M10.1311 11.2551C10.4101 11.0941 10.5057 10.7373 10.3446 10.4583C10.1835 10.1793 9.82676 10.0837 9.54775 10.2447C9.26874 10.4058 9.17313 10.7626 9.33425 11.0416C9.49531 11.3206 9.85208 11.4162 10.1311 11.2551Z" fill="#7C3AED"/>
<path d="M11.0407 4.66674C10.7618 4.82782 10.405 4.73223 10.2439 4.45322C10.0828 4.17422 10.1784 3.81746 10.4574 3.65637C10.7364 3.49529 11.0932 3.59088 11.2543 3.86989C11.4153 4.14889 11.3197 4.50565 11.0407 4.66674Z" fill="#7C3AED"/>
<path fill-rule="evenodd" clip-rule="evenodd" d="M7 2.625C4.58375 2.625 2.625 4.58375 2.625 7C2.625 8.67831 3.57013 10.1367 4.95833 10.8705V8.60417C4.95833 8.36255 5.15421 8.16667 5.39583 8.16667C5.63746 8.16667 5.83333 8.36255 5.83333 8.60417V11.8125C5.83333 12.0541 5.63746 12.25 5.39583 12.25H2.1875C1.94588 12.25 1.75 12.0541 1.75 11.8125C1.75 11.5709 1.94588 11.375 2.1875 11.375H4.09711C2.68277 10.4347 1.75 8.82665 1.75 7C1.75 4.10051 4.10051 1.75 7 1.75C7.73337 1.75 8.43273 1.90063 9.06786 2.17306C9.28993 2.2683 9.39272 2.52553 9.29752 2.74759C9.20226 2.96965 8.94501 3.07246 8.72293 2.97721C8.19478 2.75067 7.61262 2.625 7 2.625Z" fill="#7C3AED"/>
</svg>
